<?xml version="1.0" standalone="no"?>
<!DOCTYPE svg PUBLIC "-//W3C//DTD SVG 20010904//EN"
 "http://www.w3.org/TR/2001/REC-SVG-20010904/DTD/svg10.dtd">
<svg version="1.0" xmlns="http://www.w3.org/2000/svg"
 width="301.000000pt" height="167.000000pt" viewBox="0 0 301.000000 167.000000"
 preserveAspectRatio="xMidYMid meet">

<g transform="translate(0.000000,167.000000) scale(0.100000,-0.100000)"
fill="#000000" stroke="none">
<path d="M207 1040 c-120 -36 -180 -196 -117 -310 66 -118 225 -146 327 -57
119 104 86 301 -59 361 -40 17 -106 19 -151 6z"/>
<path d="M1890 1030 c-30 -10 -45 -18 -34 -19 23 -1 34 -19 34 -56 0 -21 -3
-22 -42 -18 -84 9 -151 -65 -151 -166 0 -87 32 -137 95 -147 27 -5 41 -1 66
21 31 26 32 26 32 6 0 -19 6 -21 56 -21 50 0 54 1 40 16 -13 13 -16 46 -16
210 0 149 -3 194 -12 193 -7 0 -38 -8 -68 -19z m-6 -126 c11 -30 7 -209 -6
-222 -18 -18 -43 -15 -64 9 -15 17 -19 37 -19 104 0 67 4 87 19 104 23 25 61
28 70 5z"/>
<path d="M2042 1038 c-7 -7 -12 -21 -12 -33 0 -12 5 -26 12 -33 7 -7 21 -12
33 -12 12 0 26 5 33 12 7 7 12 21 12 33 0 12 -5 26 -12 33 -7 7 -21 12 -33 12
-12 0 -26 -5 -33 -12z"/>
<path d="M570 1010 c-37 -40 -53 -103 -49 -197 5 -89 30 -149 72 -173 24 -13
30 -13 55 0 94 53 108 285 22 371 -36 37 -65 37 -100 -1z"/>
<path d="M960 1020 c19 -19 20 -32 20 -185 0 -152 -2 -167 -20 -185 l-20 -20
45 0 c45 0 45 0 25 20 -18 18 -20 33 -20 165 0 80 3 145 8 145 4 0 38 -75 76
-166 38 -91 72 -161 76 -157 4 4 38 81 76 171 l69 163 3 -157 c2 -107 -1 -161
-9 -170 -10 -12 1 -14 62 -14 55 1 70 3 57 11 -16 9 -18 29 -18 194 0 165 2
185 18 194 13 8 2 10 -44 11 l-61 0 -58 -136 -58 -136 -57 134 -57 133 -67 3
-67 3 21 -21z"/>
<path d="M769 984 c-18 -52 -18 -246 0 -298 11 -32 15 -36 27 -24 36 35 36
310 0 346 -12 12 -16 9 -27 -24z"/>
<path d="M1489 917 c-46 -31 -64 -70 -64 -143 0 -69 18 -103 68 -135 63 -40
155 0 173 74 l7 29 -26 -26 c-47 -47 -122 -27 -148 41 -19 51 -16 53 86 53
l95 0 -6 28 c-20 90 -111 129 -185 79z m101 -23 c6 -14 10 -36 10 -50 0 -23
-3 -24 -55 -24 -55 0 -55 0 -49 28 17 71 74 100 94 46z"/>
<path d="M2063 920 c-49 -14 -51 -16 -37 -34 10 -15 14 -51 14 -138 l0 -118
57 0 c48 0 54 2 40 13 -14 10 -17 35 -19 152 l-3 141 -52 -16z"/>
<path d="M2206 919 c-40 -10 -54 -18 -43 -22 14 -5 17 -21 17 -100 0 -109 11
-150 46 -166 38 -17 59 -14 93 15 30 25 31 25 31 5 0 -19 6 -21 58 -21 40 0
52 3 42 10 -12 7 -16 38 -18 150 -3 99 -7 140 -15 140 -7 0 -31 -6 -53 -13
-35 -10 -39 -14 -28 -25 10 -9 14 -40 14 -105 0 -99 -7 -117 -47 -117 -29 0
-32 16 -36 155 l-2 110 -59 -16z"/>
<path d="M2623 928 c-13 -6 -23 -15 -23 -20 0 -4 -4 -8 -10 -8 -5 0 -10 7 -10
15 0 18 -8 18 -65 4 -39 -10 -42 -13 -30 -26 12 -11 15 -43 15 -139 l0 -124
58 0 c33 0 52 4 44 8 -9 7 -12 40 -10 133 3 110 5 124 21 127 40 8 47 -14 47
-144 l0 -124 58 1 c31 0 51 3 45 6 -10 3 -13 39 -13 129 0 123 0 124 24 130
14 3 30 3 35 -1 7 -4 11 -55 11 -136 l0 -129 62 0 c51 0 59 2 46 13 -14 10
-17 36 -20 134 -3 136 -9 150 -69 159 -28 5 -41 1 -66 -20 -25 -21 -33 -24
-40 -13 -19 33 -69 45 -110 25z"/>
</g>
</svg>
